# Blender 4.3.2
# www.blender.org
mtllib TreePlatform.mtl
o Cube
v 0.628894 8.942977 -5.663744
v 0.628894 8.647176 -5.663744
v 0.628894 8.942977 -3.920084
v 0.628894 8.647176 -3.920084
v -0.470976 8.942977 -5.663744
v -0.470976 8.647176 -5.663744
v -0.470976 8.942977 -3.920084
v -0.470976 8.647176 -3.920084
v 0.628894 8.942977 -5.663744
v 0.628894 8.647176 -5.663744
v -0.470976 8.942977 -5.663744
v -0.470976 8.647176 -5.663744
v -0.470976 8.942977 -3.920084
v 0.197728 9.563530 -6.785616
v 0.197728 9.499646 -6.785616
v -0.039810 9.563530 -6.785616
v -0.039810 9.499646 -6.785616
vn 0.2597 -0.9657 -0.0000
vn 0.0893 -0.9960 -0.0000
vn 0.2563 0.9530 0.1617
vn 0.2563 -0.9530 0.1617
vn -0.1333 -0.9911 -0.0000
vn -0.0893 -0.9960 -0.0000
vn -0.8458 -0.0000 0.5335
vn -0.2563 -0.9530 0.1617
vn 0.2288 -0.9734 -0.0074
vn 0.0169 -0.9970 -0.0753
vn -0.1476 -0.9890 -0.0048
vn -0.0169 -0.9970 -0.0753
vn -0.0000 -1.0000 -0.0000
vn 0.1527 0.9879 -0.0260
vn 0.5996 -0.3356 -0.7265
vn -0.1527 0.9879 -0.0260
vn -0.5996 -0.3356 -0.7265
vt 0.375000 0.000000
vt 0.625000 0.000000
vt 0.625000 0.250000
vt 0.375000 0.250000
vt 0.625000 0.500000
vt 0.375000 0.500000
vt 0.625000 0.750000
vt 0.375000 0.750000
vt 0.125000 0.750000
vt 0.125000 0.500000
vt 0.875000 0.500000
vt 0.875000 0.750000
vt 0.625000 1.000000
vt 0.375000 1.000000
s 1
usemtl Wood
f 1/1/1 3/4/3 4/3/4 2/2/2
f 3/4/3 7/6/7 8/5/8 4/3/4
f 7/6/7 5/8/5 6/7/6 8/5/8
f 1/9/1 9/9/9 11/8/11 5/8/5
f 3/10/3 1/9/1 5/8/5 7/6/7
f 8/5/8 6/7/6 2/12/2 4/11/4
f 9/9/9 14/9/14 16/8/16 11/8/11
f 6/7/6 12/7/12 10/12/10 2/12/2
f 5/8/5 11/8/11 12/7/12 6/7/6
f 5/8/5 11/8/11 13/6/13 7/6/7
f 2/2/2 10/2/10 9/1/9 1/1/1
f 16/8/16 14/14/14 15/13/15 17/7/17
f 12/7/12 17/7/17 15/12/15 10/12/10
f 11/8/11 16/8/16 17/7/17 12/7/12
f 10/2/10 15/2/15 14/1/14 9/1/9
o Cube.001
v 0.628894 8.942977 -5.663744
v 0.628894 8.647176 -5.663744
v 0.628894 8.942977 -3.920084
v 0.628894 8.647176 -3.920084
v -0.470976 8.942977 -5.663744
v -0.470976 8.647176 -5.663744
v -0.470976 8.942977 -3.920084
v -0.470976 8.647176 -3.920084
vn 0.2563 0.9530 -0.1617
vn 0.2563 -0.9530 -0.1617
vn 0.2563 0.9530 0.1617
vn 0.2563 -0.9530 0.1617
vn -0.2563 0.9530 -0.1617
vn -0.2563 -0.9530 -0.1617
vn -0.2563 0.9530 0.1617
vn -0.2563 -0.9530 0.1617
vt 0.375000 0.000000
vt 0.625000 0.000000
vt 0.625000 0.250000
vt 0.375000 0.250000
vt 0.625000 0.500000
vt 0.375000 0.500000
vt 0.625000 0.750000
vt 0.375000 0.750000
vt 0.625000 1.000000
vt 0.375000 1.000000
vt 0.125000 0.500000
vt 0.125000 0.750000
vt 0.875000 0.500000
vt 0.875000 0.750000
s 1
usemtl Wood.001
f 18/15/18 20/18/20 21/17/21 19/16/19
f 20/18/20 24/20/24 25/19/25 21/17/21
f 24/20/24 22/22/22 23/21/23 25/19/25
f 22/22/22 18/24/18 19/23/19 23/21/23
f 20/25/20 18/26/18 22/22/22 24/20/24
f 25/19/25 23/21/23 19/28/19 21/27/21
